<svg xmlns="http://www.w3.org/2000/svg" viewBox="0 0 32 32">
  <defs>
    <linearGradient id="g" x1="0" y1="0" x2="1" y2="1">
      <stop offset="0%" stop-color="#6366F1"/>
      <stop offset="100%" stop-color="#4F46E5"/>
    </linearGradient>
  </defs>
  <rect width="32" height="32" rx="7" fill="url(#g)"/>
  <rect x="6" y="6" width="8" height="8" rx="1.5" fill="none" stroke="#fff" stroke-width="2"/>
  <rect x="9" y="9" width="2" height="2" rx=".4" fill="#fff"/>
  <rect x="18" y="6" width="8" height="8" rx="1.5" fill="none" stroke="#fff" stroke-width="2"/>
  <rect x="21" y="9" width="2" height="2" rx=".4" fill="#fff"/>
  <rect x="6" y="18" width="8" height="8" rx="1.5" fill="none" stroke="#fff" stroke-width="2"/>
  <rect x="9" y="21" width="2" height="2" rx=".4" fill="#fff"/>
  <rect x="18" y="18" width="2" height="2" rx=".4" fill="#fff"/>
  <rect x="22" y="18" width="2" height="2" rx=".4" fill="#fff"/>
  <rect x="20" y="20" width="2" height="2" rx=".4" fill="#fff"/>
  <rect x="18" y="24" width="2" height="2" rx=".4" fill="#fff"/>
  <rect x="24" y="20" width="2" height="2" rx=".4" fill="#fff"/>
  <rect x="22" y="24" width="2.5" height="2.5" rx=".5" fill="#fff"/>
  <rect x="16" y="16" width="1.5" height="1.5" rx=".3" fill="#fff" opacity=".6"/>
  <rect x="16" y="10" width="1.5" height="1.5" rx=".3" fill="#fff" opacity=".6"/>
  <rect x="10" y="16" width="1.5" height="1.5" rx=".3" fill="#fff" opacity=".6"/>
</svg>
